<svg width="100" height="27" viewBox="0 0 100 27" fill="none" xmlns="http://www.w3.org/2000/svg">
    <path fill-rule="evenodd" clip-rule="evenodd" d="M30.9542 0H29.808L29.1709 12.0818H20.1216V24.7388H28.5034H32.2681H39.1108V12.0818H31.5958L30.9542 0ZM0 5.2539L5.91581 2.1512V26.3522H0V5.2539ZM8.06701 6.67722L10.2182 3.45193V8.05451L17.284 5.1779V24.7388H10.2182H8.06701V6.67722ZM46.1765 8.05451L53.2423 5.1779V24.7388H46.1765V8.05451ZM40.8772 8.05451H44.4101V24.7388H40.8772V8.05451Z" fill="#979797" fill-opacity="0.5"/>
    <path d="M11.6452 18.1769V22.5875H8.51135V9.5878H13.6987C14.6927 9.5878 15.5707 9.77232 16.3326 10.1414C17.1004 10.5044 17.6927 11.0253 18.1093 11.7038C18.5319 12.3764 18.7432 13.1413 18.7432 13.9984C18.7432 15.2662 18.2879 16.2811 17.3772 17.043C16.4725 17.7989 15.2284 18.1769 13.6451 18.1769H11.6452ZM11.6452 15.7573H13.6987C14.3058 15.7573 14.7671 15.6055 15.0826 15.3019C15.404 14.9984 15.5647 14.5698 15.5647 14.0163C15.5647 13.4091 15.4011 12.924 15.0737 12.5609C14.7463 12.1979 14.2999 12.0133 13.7344 12.0074H11.6452V15.7573Z" fill="#D8D8D8"/>
    <path d="M24.8323 22.766C23.3502 22.766 22.1509 22.3256 21.2342 21.4446C20.3176 20.5577 19.8593 19.406 19.8593 17.9894V17.7394C19.8593 16.7513 20.0408 15.8793 20.4039 15.1234C20.7729 14.3674 21.3086 13.7841 22.011 13.3734C22.7134 12.9568 23.5467 12.7484 24.5109 12.7484C25.868 12.7484 26.9394 13.171 27.7251 14.0163C28.5108 14.8555 28.9037 16.0281 28.9037 17.534V18.7036H22.9217C23.0288 19.2453 23.2639 19.6709 23.627 19.9804C23.9901 20.2899 24.4603 20.4447 25.0377 20.4447C25.9901 20.4447 26.7341 20.1113 27.2698 19.4447L28.6447 21.0696C28.2698 21.5875 27.737 22.0012 27.0466 22.3107C26.3621 22.6142 25.624 22.766 24.8323 22.766ZM24.4931 15.0698C23.6121 15.0698 23.0883 15.6531 22.9217 16.8198H25.9573V16.5876C25.9692 16.1055 25.8472 15.7335 25.5913 15.4716C25.3353 15.2037 24.9693 15.0698 24.4931 15.0698Z" fill="#D8D8D8"/>
    <path d="M33.6268 10.5253V12.927H35.216V15.0162H33.6268V19.4358C33.6268 19.7988 33.6922 20.0518 33.8232 20.1947C33.9541 20.3375 34.2131 20.4089 34.5999 20.4089C34.8976 20.4089 35.1476 20.3911 35.3499 20.3554V22.5071C34.8083 22.6797 34.2428 22.766 33.6535 22.766C32.6179 22.766 31.853 22.522 31.359 22.0339C30.8649 21.5458 30.6179 20.8048 30.6179 19.8107V15.0162H29.3858V12.927H30.6179V10.5253H33.6268Z" fill="#D8D8D8"/>
    <path d="M42.2515 15.6501L41.2605 15.5787C40.3141 15.5787 39.707 15.8763 39.4391 16.4715V22.5875H36.4303V12.927H39.2516L39.3498 14.168C39.8558 13.2216 40.5611 12.7484 41.4658 12.7484C41.7873 12.7484 42.067 12.7841 42.3051 12.8556L42.2515 15.6501Z" fill="#D8D8D8"/>
    <path d="M42.6355 17.6679C42.6355 16.7037 42.8229 15.8466 43.1979 15.0966C43.5729 14.3407 44.1116 13.7603 44.814 13.3556C45.5163 12.9508 46.3407 12.7484 47.2871 12.7484C48.7335 12.7484 49.8734 13.1978 50.7067 14.0966C51.54 14.9894 51.9566 16.2067 51.9566 17.7483V17.8554C51.9566 19.3614 51.537 20.5577 50.6977 21.4446C49.8644 22.3256 48.7335 22.766 47.305 22.766C45.93 22.766 44.8259 22.3553 43.9926 21.5339C43.1592 20.7066 42.7099 19.5875 42.6444 18.1769L42.6355 17.6679ZM45.6443 17.8554C45.6443 18.7483 45.7842 19.403 46.0639 19.8197C46.3437 20.2363 46.7574 20.4447 47.305 20.4447C48.3764 20.4447 48.924 19.6203 48.9478 17.9715V17.6679C48.9478 15.9358 48.3942 15.0698 47.2871 15.0698C46.2812 15.0698 45.7366 15.8168 45.6532 17.3108L45.6443 17.8554Z" fill="#D8D8D8"/>
    <path d="M56.9922 19.0072L58.519 12.927H61.6885L58.5368 22.5875H55.4655L52.3138 12.927H55.4923L56.9922 19.0072Z" fill="#D8D8D8"/>
    <path d="M73.3668 20.9804C72.8847 21.5161 72.1793 21.9476 71.2508 22.275C70.3222 22.6023 69.3044 22.766 68.1973 22.766C66.4949 22.766 65.1349 22.2452 64.117 21.2036C63.0992 20.1619 62.5546 18.7126 62.4831 16.8555L62.4742 15.7305C62.4742 14.4508 62.7004 13.3347 63.1528 12.3824C63.6051 11.4241 64.2509 10.689 65.0902 10.1771C65.9354 9.65923 66.9116 9.40031 68.0187 9.40031C69.6377 9.40031 70.8936 9.77232 71.7865 10.5163C72.6852 11.2544 73.209 12.3586 73.3578 13.8288H70.3401C70.2329 13.1026 70.0008 12.5847 69.6437 12.2752C69.2865 11.9657 68.7806 11.811 68.1258 11.811C67.3402 11.811 66.733 12.1443 66.3045 12.8109C65.8759 13.4776 65.6586 14.4299 65.6527 15.668V16.4537C65.6527 17.7513 65.8729 18.7274 66.3134 19.3822C66.7598 20.031 67.4592 20.3554 68.4116 20.3554C69.227 20.3554 69.8341 20.1738 70.2329 19.8107V17.7929H68.0544V15.6412H73.3668V20.9804Z" fill="#D8D8D8"/>
    <path d="M80.8934 15.6501L79.9023 15.5787C78.9559 15.5787 78.3488 15.8763 78.0809 16.4715V22.5875H75.0721V12.927H77.8934L77.9917 14.168C78.4976 13.2216 79.2029 12.7484 80.1077 12.7484C80.4291 12.7484 80.7088 12.7841 80.9469 12.8556L80.8934 15.6501Z" fill="#D8D8D8"/>
    <path d="M87.1521 22.5875C87.045 22.391 86.9498 22.1024 86.8664 21.7214C86.3129 22.4178 85.5391 22.766 84.5451 22.766C83.6344 22.766 82.8606 22.4922 82.2237 21.9446C81.5868 21.3911 81.2684 20.6976 81.2684 19.8643C81.2684 18.8167 81.6553 18.0251 82.429 17.4894C83.2028 16.9537 84.3278 16.6858 85.804 16.6858H86.7325V16.1769C86.7325 15.29 86.3486 14.8466 85.5807 14.8466C84.8665 14.8466 84.5093 15.1978 84.5093 15.9001H81.5005C81.5005 14.9656 81.8963 14.2067 82.688 13.6234C83.4856 13.0401 84.5004 12.7484 85.7325 12.7484C86.9646 12.7484 87.9378 13.049 88.6521 13.6502C89.3664 14.2514 89.7324 15.0758 89.7503 16.1233V20.4C89.7622 21.2869 89.8991 21.9655 90.161 22.4357V22.5875H87.1521ZM85.2682 20.6232C85.6432 20.6232 85.9528 20.5429 86.1968 20.3822C86.4468 20.2214 86.6254 20.0399 86.7325 19.8375V18.2929H85.8575C84.8099 18.2929 84.2861 18.7632 84.2861 19.7036C84.2861 19.9774 84.3784 20.2006 84.5629 20.3732C84.7474 20.5399 84.9825 20.6232 85.2682 20.6232Z" fill="#D8D8D8"/>
    <path d="M91.0449 17.6858C91.0449 16.1561 91.3752 14.9508 92.0359 14.0698C92.6966 13.1889 93.6192 12.7484 94.8037 12.7484C95.6668 12.7484 96.393 13.0877 96.9822 13.7663V8.87354H100V22.5875H97.2947L97.1429 21.5518C96.5239 22.3613 95.7382 22.766 94.7859 22.766C93.6371 22.766 92.7264 22.3256 92.0538 21.4446C91.3812 20.5637 91.0449 19.3108 91.0449 17.6858ZM94.0537 17.8733C94.0537 19.5875 94.5537 20.4447 95.5537 20.4447C96.2203 20.4447 96.6965 20.1649 96.9822 19.6054V15.9269C96.7084 15.3555 96.2382 15.0698 95.5715 15.0698C94.643 15.0698 94.14 15.8198 94.0627 17.3197L94.0537 17.8733Z" fill="#D8D8D8"/>
    <path d="M7.52924 24.7383H60.7715V26.3517H7.52924V24.7383Z" fill="#979797" fill-opacity="0.5"/>
</svg>