<svg width="181" height="40" viewBox="0 0 181 40" fill="none" xmlns="http://www.w3.org/2000/svg">
    <path opacity="0.5" fill-rule="evenodd" clip-rule="evenodd" d="M47.0505 0H45.3083L44.3399 18.3389H30.585V37.551H43.3254H49.0476H59.4485V18.3389H48.0258L47.0505 0Z" fill="#A7A7A7"/>
    <path opacity="0.5" fill-rule="evenodd" clip-rule="evenodd" d="M0 5.52587L8.992 0.816284V37.551H0V5.52587Z" fill="#A7A7A7"/>
    <path opacity="0.5" fill-rule="evenodd" clip-rule="evenodd" d="M12.262 10.1354L15.5318 5.23975V37.5511H12.262V10.1354Z" fill="#A7A7A7"/>
    <path opacity="0.5" fill-rule="evenodd" clip-rule="evenodd" d="M26.2717 7.8595L15.5317 12.2259V37.551H26.2717V7.8595Z" fill="#A7A7A7"/>
    <path opacity="0.5" fill-rule="evenodd" clip-rule="evenodd" d="M70.1885 12.2259L80.9284 7.8595V37.551H70.1885V12.2259Z" fill="#A7A7A7"/>
    <path opacity="0.5" d="M67.5033 12.226H62.1333V37.5511H67.5033V12.226Z" fill="#A7A7A7"/>
    <path d="M105.62 9.51101C96.952 4.65328 86.7438 1.84436 75.8101 1.84436C64.8764 1.84436 54.6683 4.65328 46 9.51101" stroke="#00C2FF" stroke-width="3.31771" stroke-miterlimit="10"/>
    <path d="M32.7275 34.1377V13H13.7432V34.1377H19.1191V17.3213H27.3662V34.1377H32.7275Z" fill="white"/>
    <path d="M41.8477 21.4961C43.4883 21.4961 44.6455 22.6387 44.7334 24.3379H38.9326C39.0645 22.6826 40.251 21.4961 41.8477 21.4961ZM44.8506 29.0986C44.4844 30.1826 43.4004 30.8418 42.0088 30.8418C40.1338 30.8418 38.8594 29.5234 38.8594 27.6191V27.2969H49.626V25.832C49.626 20.9541 46.5645 17.8047 41.7598 17.8047C36.8818 17.8047 33.8203 21.0859 33.8203 26.2422C33.8203 31.3984 36.8525 34.5186 41.9355 34.5186C46.1104 34.5186 49.04 32.3945 49.5381 29.0986H44.8506Z" fill="white"/>
    <path d="M63.4922 18.1855H49.21V22.0234H53.751V34.1377H58.9365V22.0234H63.4922V18.1855Z" fill="white"/>
    <path d="M74.1357 17.9512C71.8359 17.9512 70.1074 19.1084 69.3018 21.0273H69.1992V18.1855H64.0283V39.2939H69.2285V31.4131H69.3311C70.1074 33.2588 71.8652 34.3721 74.209 34.3721C78.1787 34.3721 80.5078 31.3691 80.5078 26.1689C80.5078 20.9541 78.1641 17.9512 74.1357 17.9512ZM72.2021 30.3145C70.3711 30.3145 69.2139 28.7031 69.1992 26.1689C69.2139 23.6494 70.3857 22.0088 72.2021 22.0088C74.0332 22.0088 75.2051 23.6348 75.2051 26.1689C75.2051 28.7031 74.0479 30.3145 72.2021 30.3145Z" fill="white"/>
    <path d="M88.8955 34.5186C93.9199 34.5186 97.0547 31.4863 97.0547 26.1543C97.0547 20.9248 93.876 17.8047 88.8955 17.8047C83.9443 17.8047 80.7363 20.9395 80.7363 26.1543C80.7363 31.4717 83.8711 34.5186 88.8955 34.5186ZM88.8955 30.71C87.1084 30.71 86.0098 29.084 86.0098 26.1689C86.0098 23.2979 87.1377 21.6133 88.8955 21.6133C90.668 21.6133 91.7959 23.2979 91.7959 26.1689C91.7959 29.084 90.668 30.71 88.8955 30.71Z" fill="white"/>
    <path d="M106.614 34.1377C110.335 34.1377 112.693 32.292 112.693 29.5088C112.693 27.502 111.141 26.0225 108.958 25.7734V25.6562C110.687 25.4219 111.976 23.9424 111.976 22.1992C111.976 19.6797 109.896 18.1855 106.409 18.1855H97.8252V34.1377H106.614ZM102.908 21.2324H104.842C106.146 21.2324 106.893 21.8477 106.893 22.9023C106.893 23.9424 106.102 24.5723 104.71 24.5723H102.908V21.2324ZM102.908 27.2822H104.93C106.526 27.2822 107.449 27.9414 107.449 29.1426C107.449 30.4023 106.57 31.0908 104.988 31.0908H102.908V27.2822Z" fill="white"/>
    <path d="M119.279 34.2754V17.459H128.112V13.1377H113.903V34.2754H119.279Z" fill="white"/>
    <path d="M138.038 18.0889C135.738 18.0889 134.01 19.2461 133.204 21.165H133.102V18.3232H127.931V39.4316H133.131V31.5508H133.233C134.01 33.3965 135.768 34.5098 138.111 34.5098C142.081 34.5098 144.41 31.5068 144.41 26.3066C144.41 21.0918 142.066 18.0889 138.038 18.0889ZM136.104 30.4521C134.273 30.4521 133.116 28.8408 133.102 26.3066C133.116 23.7871 134.288 22.1465 136.104 22.1465C137.936 22.1465 139.107 23.7725 139.107 26.3066C139.107 28.8408 137.95 30.4521 136.104 30.4521Z" fill="white"/>
    <path d="M151.729 30.9355C150.498 30.9355 149.663 30.3203 149.663 29.3096C149.663 28.3721 150.425 27.7422 151.787 27.6396L154.688 27.4492V28.5479C154.688 29.9688 153.311 30.9355 151.729 30.9355ZM149.883 34.5098C151.802 34.5098 153.75 33.6162 154.614 32.0049H154.717V34.2754H159.771V23.333C159.771 20.125 156.943 17.9424 152.681 17.9424C148.228 17.9424 145.444 20.0957 145.298 23.3623H149.971C150.117 22.3809 151.011 21.6484 152.417 21.6484C153.779 21.6484 154.688 22.3516 154.688 23.626V24.5342L150.952 24.7539C146.821 25.0029 144.521 26.6729 144.521 29.6611C144.521 32.5469 146.924 34.5098 149.883 34.5098Z" fill="white"/>
    <path d="M171.718 30.4521H166.166V30.335C166.869 29.2217 167.147 27.8887 167.265 26.3213L167.543 22.1318H171.718V30.4521ZM164.584 38.3623V34.2754H174.486V38.3623H179.174V30.4521H176.889V18.3232H163.222L162.738 25.9404C162.606 28.0938 162.226 29.8516 161.054 30.4521H159.896V38.3623H164.584Z" fill="white"/>
</svg>