<svg width="492" height="89" viewBox="0 0 492 89" fill="none" xmlns="http://www.w3.org/2000/svg">
    <path d="M443.685 59.6398C443.523 59.6398 443.361 59.6399 443.198 59.5317C442.495 59.2614 442.117 58.5043 442.387 57.8014C443.09 55.8549 443.901 54.0165 444.712 52.2863C446.334 48.988 448.173 46.1763 450.173 43.9053C450.66 43.3646 451.525 43.3106 452.066 43.7972C452.607 44.2838 452.661 45.149 452.174 45.6897C450.336 47.7984 448.605 50.3938 447.091 53.4217C446.28 55.0438 445.523 56.8282 444.875 58.6666C444.767 59.2614 444.226 59.6398 443.685 59.6398Z" fill="#00C2FF"/>
    <path d="M476.668 76.5638C476.181 76.5638 475.641 76.2934 475.424 75.7527C475.1 75.0498 475.424 74.2928 476.073 73.9684L488.293 68.345C487.482 64.4519 483.968 50.5559 475.695 43.5267C475.1 43.0401 475.046 42.175 475.532 41.6343C476.019 41.0395 476.884 40.9854 477.425 41.472C487.806 50.2314 491.051 68.1287 491.159 68.8857C491.267 69.4805 490.942 70.0753 490.402 70.3457L477.209 76.4015C477.046 76.5638 476.83 76.5638 476.668 76.5638Z" fill="#00C2FF"/>
    <path d="M464.827 43.0402C457.797 43.0402 451.796 35.0377 449.471 27.1975C449.254 26.4946 449.687 25.7376 450.39 25.5213C451.093 25.3051 451.85 25.7376 452.066 26.4405C454.012 33.1993 459.149 40.3367 464.827 40.3367C472.072 40.3367 478.074 28.9278 478.452 21.5201C478.506 20.7631 479.101 20.1683 479.858 20.2224C480.615 20.2765 481.156 20.8713 481.156 21.6283C480.723 30.1714 474.019 43.0402 464.827 43.0402Z" fill="#00C2FF"/>
    <path d="M447.74 28.4951C447.146 28.4951 446.659 28.1166 446.443 27.5759C445.902 25.8998 445.307 23.034 445.307 20.0061C445.307 8.9757 454.283 0 465.313 0C475.749 0 484.508 8.1646 485.265 18.5461C485.265 18.7624 485.211 19.0328 485.103 19.2491C482.994 23.4125 473.748 24.4939 472.667 24.6021C472.234 24.6561 471.802 24.4939 471.477 24.1154C471.207 23.791 471.099 23.3043 471.207 22.8718C471.207 22.8718 471.585 21.52 471.748 19.0328C471.693 19.0869 471.639 19.1409 471.531 19.195C465.908 24.1154 454.337 28.1707 447.74 28.4951C447.794 28.4951 447.794 28.4951 447.74 28.4951ZM465.313 2.70352C455.797 2.70352 448.011 10.4897 448.011 20.0061C448.011 22.1689 448.335 24.2776 448.713 25.7375C454.877 25.0887 464.935 21.4659 469.801 17.1944C470.882 16.2211 471.639 15.3019 472.018 14.4908C472.288 13.8961 472.883 13.5717 473.532 13.6798C474.181 13.7879 474.613 14.3287 474.613 14.9775C474.613 16.2211 474.613 17.4647 474.505 18.6002C474.451 19.8438 474.289 20.8712 474.181 21.6282C477.479 21.0875 481.318 19.8979 482.454 18.2758C481.697 9.51636 474.181 2.70352 465.313 2.70352Z" fill="#00C2FF"/>
    <path d="M453.147 89.0001C448.119 89.0001 430.6 87.3239 417.461 65.9661C410.107 54.0165 409.459 42.3372 410.27 34.6592C411.081 26.2783 413.946 19.6817 415.623 18.6544L424.382 13.3014C425.301 12.7607 426.382 12.4363 427.464 12.4363C429.519 12.4363 431.411 13.5177 432.492 15.2479C432.546 15.302 432.547 15.3561 432.601 15.4102L438.332 29.0359C439.954 31.7935 439.089 35.3622 436.331 37.0383L429.518 41.2017C428.599 41.7425 427.518 42.0669 426.437 42.0669C426.112 42.0669 425.788 42.0128 425.463 41.9587C425.355 45.0408 425.626 51.8536 429.41 58.0717C433.304 64.398 439.468 67.5341 442.171 68.6696C442.55 67.6422 443.252 66.3986 444.496 65.6416L451.309 61.4782C452.228 60.9375 453.309 60.6131 454.391 60.6131C456.446 60.6131 458.284 61.6404 459.365 63.3166L468.557 74.8336C468.612 74.8876 468.612 74.9417 468.666 74.9958C469.477 76.3476 469.747 77.9156 469.369 79.4296C468.99 80.9435 468.071 82.2413 466.719 83.0523L458.392 88.189C457.419 88.6757 455.526 89.0001 453.147 89.0001ZM417.028 20.9253C416.38 21.5742 413.676 26.7649 412.865 35.3621C412.216 42.4994 412.919 53.3676 419.732 64.5061C432.114 84.7285 448.443 86.2965 453.147 86.2965C455.526 86.2965 456.662 85.9721 456.878 85.864L465.205 80.7273C465.908 80.2947 466.449 79.5918 466.611 78.7807C466.827 77.9697 466.665 77.1586 466.286 76.4557L457.094 64.9387C457.04 64.8846 457.041 64.8305 456.986 64.7765C456.392 63.8573 455.364 63.2625 454.283 63.2625C453.688 63.2625 453.147 63.4247 452.661 63.7491L445.848 67.9126C444.875 68.5074 444.388 70.1295 444.334 70.6702C444.28 71.0487 444.064 71.4271 443.739 71.5893C443.415 71.8056 442.982 71.8597 442.604 71.7516C442.225 71.6434 432.655 68.6155 427.031 59.4776C421.462 50.3938 422.76 40.3907 422.814 39.9581C422.868 39.5255 423.138 39.1471 423.571 38.9308C423.949 38.7145 424.436 38.7145 424.814 38.9308C425.788 39.4715 427.085 39.4715 428.005 38.8767L434.818 34.7133C436.332 33.7941 436.764 31.8476 435.845 30.3336C435.791 30.2795 435.791 30.2254 435.737 30.1714L430.005 16.5456C429.411 15.6264 428.437 15.1398 427.356 15.1398C426.761 15.1398 426.22 15.302 425.734 15.6264L417.028 20.9253Z" fill="#00C2FF"/>
    <path d="M446.821 78.0777C446.388 78.0777 445.902 77.8614 445.686 77.4288L441.847 71.1567C441.468 70.5078 441.63 69.6968 442.279 69.3183C442.928 68.9398 443.739 69.102 444.117 69.7509L447.956 76.023C448.335 76.6719 448.173 77.4829 447.524 77.8614C447.308 78.0236 447.091 78.0777 446.821 78.0777Z" fill="#00C2FF"/>
    <path d="M424.274 41.3639C423.841 41.3639 423.355 41.1475 423.138 40.715L419.299 34.4428C418.921 33.794 419.083 32.9829 419.732 32.6044C420.381 32.2259 421.192 32.3881 421.57 33.037L425.409 39.3092C425.788 39.958 425.626 40.7691 424.977 41.1476C424.76 41.3098 424.544 41.3639 424.274 41.3639Z" fill="#00C2FF"/>
    <path d="M22.9303 89C22.2663 89 21.6576 88.502 21.5469 87.838C21.4362 87.0633 21.9897 86.3992 22.709 86.2886L36.9304 84.2412C37.7051 84.1305 38.369 84.6838 38.4797 85.4032C38.5903 86.1779 38.0369 86.8419 37.3176 86.9526L23.0965 89C23.0965 89 23.041 89 22.9303 89Z" fill="#00C2FF"/>
    <path d="M63.0486 83.9093C62.3292 83.9093 61.7758 83.4113 61.6652 82.6919C61.5545 81.9172 62.108 81.2532 62.8827 81.1425L70.7955 80.2018C71.5702 80.0912 72.2344 80.6445 72.3451 81.4192C72.4558 82.1939 71.9023 82.858 71.1276 82.9686L63.2147 83.9093C63.1594 83.9093 63.1039 83.9093 63.0486 83.9093Z" fill="#00C2FF"/>
    <path d="M29.9579 87.9488C29.9025 87.9488 29.847 87.9488 29.7917 87.9488C29.017 87.8934 28.4638 87.1741 28.5745 86.4547L29.6812 75.5537C27.8551 75.3877 25.7522 76.1623 23.7048 76.8817C20.3293 78.0437 16.5114 79.4272 13.6893 76.6604C11.0332 74.0596 11.0329 71.1268 10.9776 66.9766C10.9776 65.3719 10.9777 63.5458 10.8117 61.3877C10.7564 61.0004 10.7009 60.5024 10.4243 60.3364C9.98157 59.949 8.65362 60.0597 7.49157 60.1703C5.00147 60.3917 1.2941 60.779 0.13205 56.5181C-0.476641 54.3047 1.0727 51.1506 3.67347 45.8383C6.38492 40.3048 10.0923 32.7792 12.7485 23.2061C15.9026 11.8623 26.859 2.17865 38.1474 0.684588C52.2027 -1.19682 62.5505 0.795205 69.7441 6.71611C76.5504 12.305 80.3133 21.1033 81.1433 33.6645C82.1947 48.9925 76.2185 62.7158 65.1514 70.5735L64.3764 82.5813C64.3211 83.3559 63.6572 83.9093 62.8825 83.854C62.1078 83.7987 61.5543 83.1345 61.6097 82.3598L62.3846 69.688C62.3846 69.2454 62.6057 68.8581 62.9931 68.6367C73.5621 61.3878 79.3172 48.3838 78.3211 33.8306C77.5464 22.0441 74.1157 13.9098 67.9181 8.81889C61.3885 3.50668 51.4833 1.68057 38.4241 3.39598C28.1317 4.77937 18.2267 13.5778 15.2939 23.9255C12.5825 33.7199 8.81957 41.4116 6.0528 47.0558C4.17139 50.9293 2.34526 54.5814 2.67727 55.7988C3.17529 57.6248 4.282 57.6802 7.10412 57.4036C8.87486 57.2376 10.7009 57.0715 12.0843 58.1782C12.859 58.8422 13.3019 59.8384 13.4126 61.1664C13.5786 63.3798 13.5785 65.2612 13.5785 66.9213C13.5785 71.0161 13.6891 72.8974 15.4598 74.6128C16.9539 76.0516 19.1673 75.4429 22.6535 74.2255C25.4202 73.2295 28.6297 72.1228 31.5072 73.1188C32.1159 73.3402 32.5033 73.9489 32.448 74.5576L31.1751 86.7314C31.2858 87.4508 30.6772 87.9488 29.9579 87.9488Z" fill="#00C2FF"/>
    <path d="M47.61 24.534C46.1712 24.534 45.0091 23.372 45.0091 21.9333C45.0091 20.4945 46.1712 19.3325 47.61 19.3325C49.0487 19.3325 50.2109 20.4945 50.2109 21.9333C50.2109 23.372 49.0487 24.534 47.61 24.534ZM47.61 21.7672C47.4993 21.7672 47.4441 21.8226 47.4441 21.9333C47.4441 22.0439 47.4993 22.0993 47.61 22.0993C47.7206 22.0993 47.7759 22.0439 47.7759 21.9333C47.7759 21.8226 47.6653 21.7672 47.61 21.7672Z" fill="#00C2FF"/>
    <path d="M42.9064 49.6009C42.5191 49.6009 42.1872 49.4348 41.9105 49.1581C41.5785 48.8261 41.4677 48.3835 41.523 47.9408L44.7324 31.8935L41.8551 32.8342C41.1357 33.0555 40.361 32.6682 40.1397 31.9489C39.9183 31.2295 40.3057 30.4547 41.0251 30.2334L46.1158 28.5733C46.5585 28.4073 47.112 28.518 47.4441 28.85C47.8314 29.182 47.9973 29.6801 47.8866 30.1782L44.6219 46.5574L47.3333 46.1147C48.108 46.004 48.7719 46.5021 48.938 47.2768C49.104 48.0515 48.5506 48.7155 47.7759 48.8815L43.0723 49.6562C43.0723 49.6009 42.9618 49.6009 42.9064 49.6009Z" fill="#00C2FF"/>
    <path d="M46.1158 57.3481C33.6653 57.3481 23.539 47.2216 23.539 34.7711C23.539 33.9964 24.1477 33.3878 24.9224 33.3878C25.6971 33.3878 26.3058 33.9964 26.3058 34.7711C26.3058 45.6723 35.2147 54.5813 46.1158 54.5813C57.0169 54.5813 65.9261 45.6723 65.9261 34.7711C65.9261 23.87 57.0169 14.9611 46.1158 14.9611C38.4242 14.9611 31.3965 19.4433 28.1317 26.4156C27.7997 27.1349 26.9698 27.4116 26.3058 27.0796C25.5864 26.7475 25.3096 25.9175 25.6416 25.2535C29.3491 17.2851 37.3728 12.1943 46.1158 12.1943C58.5663 12.1943 68.6929 22.3206 68.6929 34.7711C68.6929 47.2216 58.5663 57.3481 46.1158 57.3481Z" fill="#00C2FF"/>
    <path d="M215.759 45.4889C215.484 45.4889 215.264 45.434 214.99 45.2692L202.629 37.3031C202.189 37.0284 201.914 36.479 202.024 35.9297C202.079 35.7649 202.738 31.4248 204.826 27.1945C205.705 25.4365 206.639 23.9531 207.738 22.7445C208.232 22.1951 209.111 22.1401 209.661 22.6345C210.21 23.1289 210.265 24.008 209.771 24.5573C208.892 25.6012 208.013 26.8647 207.298 28.403C205.925 31.2049 205.211 34.0619 204.936 35.4903L215.759 42.4673L227.021 35.4903C226.472 33.1279 224.714 26.8099 220.868 23.5686C220.264 23.0741 220.209 22.1951 220.703 21.6457C221.198 21.0414 222.077 20.9866 222.626 21.481C228.12 26.1508 229.823 35.5451 229.878 35.9297C229.988 36.479 229.713 37.0285 229.274 37.3581L216.473 45.3242C216.253 45.3791 215.979 45.4889 215.759 45.4889Z" fill="#00C2FF"/>
    <path d="M215.759 23.4583C211.638 23.4583 208.452 19.0084 207.243 14.8331C207.024 14.1189 207.463 13.3497 208.177 13.13C208.892 12.9102 209.661 13.3498 209.88 14.064C210.814 17.3054 213.286 20.7113 215.759 20.7113C218.78 20.7113 221.857 15.6571 222.077 11.7015C222.132 10.9324 222.736 10.3831 223.505 10.3831C224.274 10.438 224.823 11.0424 224.823 11.8115C224.549 16.4263 220.868 23.4583 215.759 23.4583Z" fill="#00C2FF"/>
    <path d="M207.024 15.9871C206.419 15.9871 205.925 15.6024 205.705 15.053C205.375 14.174 205.101 12.5808 205.101 10.9327C205.101 4.88945 209.99 0 216.033 0C221.747 0 226.527 4.45 226.911 10.1636C226.911 10.3833 226.856 10.6579 226.746 10.8777C225.593 13.24 221.143 13.8444 219.824 14.0093C219.385 14.0642 218.945 13.8994 218.616 13.5149C218.341 13.1852 218.231 12.6906 218.341 12.2511C218.341 12.2511 218.341 12.1412 218.396 11.9764C215.155 14.174 210.1 15.8222 207.024 15.9321C207.024 15.987 207.024 15.9871 207.024 15.9871ZM215.979 2.74691C211.474 2.74691 207.793 6.42772 207.793 10.9327C207.793 11.7018 207.903 12.4709 208.013 13.1302C211.089 12.6907 215.594 10.9876 217.846 9.00982C218.506 8.46044 218.725 8.07582 218.78 7.85606C219.055 7.25174 219.659 6.92211 220.319 7.03199C220.978 7.14187 221.417 7.69119 221.417 8.35045C221.417 9.00971 221.417 9.66897 221.362 10.2733C221.362 10.493 221.307 10.7129 221.307 10.9327C222.571 10.658 223.615 10.2185 224.054 9.83389C223.56 5.87834 220.099 2.74691 215.979 2.74691Z" fill="#00C2FF"/>
    <path d="M275.257 45.4889C274.982 45.4889 274.763 45.434 274.488 45.2692L262.127 37.3031C261.687 37.0284 261.413 36.479 261.523 35.9297C261.577 35.7649 262.237 31.4248 264.324 27.1945C265.203 25.4365 266.137 23.9531 267.236 22.7445C267.73 22.1951 268.609 22.1401 269.159 22.6345C269.708 23.1289 269.763 24.008 269.269 24.5573C268.335 25.6012 267.511 26.8647 266.797 28.403C265.423 31.2049 264.709 34.0619 264.434 35.4903L275.257 42.4673L286.519 35.4903C285.97 33.1279 284.212 26.8099 280.366 23.5686C279.762 23.0741 279.707 22.1951 280.202 21.6457C280.696 21.0414 281.575 20.9866 282.124 21.481C287.618 26.1508 289.321 35.5451 289.376 35.9297C289.486 36.479 289.211 37.0285 288.772 37.3581L275.971 45.3242C275.751 45.3791 275.477 45.4889 275.257 45.4889Z" fill="#00C2FF"/>
    <path d="M275.257 23.4583C271.137 23.4583 267.95 19.0084 266.742 14.8331C266.522 14.1189 266.961 13.3497 267.675 13.13C268.39 12.9102 269.159 13.3498 269.378 14.064C270.312 17.3054 272.785 20.7113 275.257 20.7113C278.279 20.7113 281.355 15.6571 281.575 11.7015C281.63 10.9324 282.234 10.3831 283.003 10.3831C283.772 10.438 284.322 11.0424 284.322 11.8115C284.047 16.4263 280.311 23.4583 275.257 23.4583Z" fill="#00C2FF"/>
    <path d="M266.467 15.9871C265.863 15.9871 265.368 15.6024 265.148 15.053C264.819 14.174 264.544 12.5808 264.544 10.9327C264.544 4.88945 269.434 0 275.477 0C281.19 0 285.97 4.45 286.354 10.1636C286.354 10.3833 286.3 10.6579 286.19 10.8777C285.036 13.24 280.586 13.8444 279.267 14.0093C278.828 14.0642 278.389 13.8994 278.059 13.5149C277.784 13.1852 277.674 12.6906 277.784 12.2511C277.784 12.2511 277.784 12.1412 277.839 11.9764C274.598 14.174 269.543 15.8222 266.467 15.9321C266.522 15.987 266.522 15.9871 266.467 15.9871ZM275.477 2.74691C270.972 2.74691 267.291 6.42772 267.291 10.9327C267.291 11.7018 267.401 12.4709 267.511 13.1302C270.587 12.6907 275.092 10.9876 277.345 9.00982C278.004 8.46044 278.224 8.07582 278.279 7.85606C278.553 7.25174 279.158 6.92211 279.817 7.03199C280.476 7.14187 280.916 7.69119 280.916 8.35045C280.916 9.00971 280.916 9.66897 280.861 10.2733C280.861 10.493 280.806 10.7129 280.806 10.9327C282.069 10.658 283.113 10.2185 283.553 9.83389C283.058 5.87834 279.597 2.74691 275.477 2.74691Z" fill="#00C2FF"/>
    <path d="M244.876 89C244.601 89 244.382 88.9451 244.107 88.7803L231.746 80.8143C231.306 80.5396 231.032 79.9902 231.142 79.4408C231.196 79.276 231.856 74.9357 233.943 70.7054C234.822 68.9474 235.757 67.4643 236.855 66.2556C237.35 65.7062 238.229 65.6512 238.778 66.1456C239.328 66.6401 239.382 67.5191 238.888 68.0685C237.954 69.1123 237.13 70.3759 236.416 71.9142C235.042 74.716 234.328 77.5727 234.053 79.0011L244.876 85.9784L256.138 79.0011C255.589 76.6388 253.831 70.3211 249.986 67.0797C249.381 66.5853 249.326 65.7062 249.821 65.1569C250.315 64.5525 251.194 64.4974 251.743 64.9919C257.237 69.6616 258.94 79.0562 258.995 79.4408C259.105 79.9902 258.83 80.5394 258.391 80.869L245.59 88.835C245.426 88.89 245.151 89 244.876 89Z" fill="#00C2FF"/>
    <path d="M244.876 66.9695C240.756 66.9695 237.569 62.5194 236.361 58.3441C236.141 57.6299 236.58 56.861 237.295 56.6412C238.009 56.4214 238.778 56.8608 238.998 57.575C239.932 60.8163 242.404 64.2226 244.876 64.2226C247.898 64.2226 250.974 59.1683 251.194 55.2128C251.249 54.4436 251.853 53.8943 252.622 53.8943C253.391 53.9492 253.941 54.5533 253.941 55.3225C253.721 59.9373 249.985 66.9695 244.876 66.9695Z" fill="#00C2FF"/>
    <path d="M236.141 59.4981C235.536 59.4981 235.042 59.1137 234.822 58.5643C234.493 57.6853 234.218 56.0921 234.218 54.4439C234.218 48.4007 239.107 43.511 245.151 43.511C250.864 43.511 255.644 47.961 256.029 53.6746C256.029 53.8943 255.973 54.1692 255.864 54.3889C254.71 56.7513 250.26 57.3554 248.942 57.5202C248.502 57.5752 248.062 57.4104 247.733 57.0258C247.458 56.6962 247.348 56.2019 247.458 55.7624C247.458 55.7624 247.458 55.6525 247.513 55.4877C244.272 57.6852 239.217 59.3332 236.141 59.4431C236.196 59.498 236.141 59.4981 236.141 59.4981ZM245.151 46.2579C240.646 46.2579 236.965 49.939 236.965 54.4439C236.965 55.213 237.075 55.9822 237.185 56.6414C240.261 56.2019 244.766 54.4989 247.019 52.5211C247.678 51.9717 247.898 51.5871 247.953 51.3673C248.227 50.763 248.832 50.4334 249.491 50.5432C250.15 50.6531 250.59 51.2024 250.59 51.8617C250.59 52.521 250.59 53.1802 250.535 53.7845C250.535 54.0043 250.48 54.2242 250.48 54.4439C251.743 54.1692 252.787 53.7297 253.227 53.3451C252.732 49.3347 249.216 46.2579 245.151 46.2579Z" fill="#00C2FF"/>
    <path d="M229.658 15.2179C229.164 15.2179 228.724 14.9983 228.45 14.5588C228.065 13.8995 228.285 13.0755 228.944 12.691C233.834 9.77923 239.382 8.2959 245.096 8.2959C250.59 8.2959 255.974 9.72429 260.698 12.4163C261.358 12.8008 261.577 13.6249 261.193 14.2841C260.808 14.9434 259.984 15.1631 259.325 14.7785C254.985 12.3063 250.095 11.0428 245.096 11.0428C239.877 11.0428 234.767 12.4162 230.317 15.0532C230.153 15.1631 229.933 15.2179 229.658 15.2179Z" fill="#00C2FF"/>
    <path d="M259.49 68.0686C258.995 68.0686 258.501 67.794 258.281 67.3545C257.897 66.6952 258.171 65.8709 258.831 65.4864C265.698 61.8055 270.807 55.4327 272.95 47.9611C273.169 47.2469 273.938 46.8076 274.653 47.0273C275.367 47.2471 275.806 48.016 275.587 48.7302C273.224 56.8611 267.621 63.8934 260.094 67.9039C259.929 68.0137 259.709 68.0686 259.49 68.0686Z" fill="#00C2FF"/>
    <path d="M230.317 67.7938C230.098 67.7938 229.878 67.739 229.658 67.6291C222.516 63.6186 217.242 57.1358 214.88 49.3345C214.66 48.6203 215.044 47.8511 215.814 47.6314C216.528 47.4116 217.297 47.7963 217.517 48.5654C219.714 55.6525 224.494 61.5858 231.032 65.2666C231.691 65.6512 231.911 66.4752 231.581 67.1345C231.251 67.574 230.757 67.7938 230.317 67.7938Z" fill="#00C2FF"/>
    <path d="M180.406 37.7355C180.911 37.5112 181.138 36.9202 180.914 36.4156L177.258 28.1916C177.034 27.6869 176.443 27.4596 175.938 27.684C175.433 27.9083 175.206 28.4993 175.43 29.004L178.68 36.3142L171.37 39.5639C170.865 39.7883 170.638 40.3792 170.862 40.8839C171.087 41.3886 171.678 41.6158 172.182 41.3915L180.406 37.7355ZM103.359 37.7551C112.472 34.2509 126.152 32 141.5 32V30C125.995 30 112.054 32.269 102.641 35.8884L103.359 37.7551ZM141.5 32C156.848 32 170.528 34.2509 179.641 37.7551L180.359 35.8884C170.946 32.269 157.005 30 141.5 30V32Z" fill="#00C2FF"/>
    <path d="M388.914 67.4062C389.138 66.9015 388.911 66.3106 388.406 66.0862L380.182 62.4303C379.678 62.2059 379.087 62.4332 378.862 62.9379C378.638 63.4425 378.865 64.0335 379.37 64.2578L386.68 67.5076L383.43 74.8178C383.206 75.3225 383.433 75.9134 383.938 76.1378C384.443 76.3621 385.034 76.1349 385.258 75.6302L388.914 67.4062ZM349.5 71.8218C334.152 71.8218 320.472 69.5709 311.359 66.0666L310.641 67.9334C320.054 71.5528 333.995 73.8218 349.5 73.8218V71.8218ZM387.641 66.0666C378.528 69.5709 364.848 71.8218 349.5 71.8218V73.8218C365.005 73.8218 378.946 71.5528 388.359 67.9334L387.641 66.0666Z" fill="#00C2FF"/>
</svg>