<svg width="41" height="29" viewBox="0 0 41 29" fill="none" xmlns="http://www.w3.org/2000/svg">
    <path opacity="0.8" d="M18.6062 21.0909C18.6062 23.3333 17.7336 25.2121 15.9883 26.7273C14.243 28.2424 12.0613 29 9.44337 29C6.88774 29 4.67493 28.1515 2.80496 26.4545C0.934987 24.697 0 22.1818 0 18.9091C0 16.9697 0.405161 15.0303 1.21548 13.0909C2.0258 11.1515 3.05429 9.33333 4.30094 7.63636C5.60992 5.93939 7.0124 4.42424 8.50838 3.09091C10.0044 1.75758 11.438 0.727273 12.8093 0L17.4843 4.45455C16.7363 4.75758 15.9571 5.21212 15.1468 5.81818C14.3365 6.42424 13.5885 7.12121 12.9028 7.90909C12.2172 8.63636 11.6562 9.48485 11.2198 10.4545C10.7835 11.3636 10.5653 12.2727 10.5653 13.1818C12.8716 13.4848 14.7728 14.3333 16.2688 15.7273C17.8271 17.0606 18.6062 18.8485 18.6062 21.0909ZM41 21.0909C41 23.3333 40.1273 25.2121 38.382 26.7273C36.6367 28.2424 34.4551 29 31.8371 29C29.2815 29 27.0687 28.1515 25.1987 26.4545C23.3288 24.697 22.3938 22.1818 22.3938 18.9091C22.3938 16.9697 22.7989 15.0303 23.6092 13.0909C24.4196 11.1515 25.4481 9.33333 26.6947 7.63636C28.0037 5.93939 29.4062 4.42424 30.9021 3.09091C32.3981 1.75758 33.8318 0.727273 35.2031 1.64627e-07L39.878 4.45455C39.13 4.75758 38.3509 5.21212 37.5406 5.81818C36.7302 6.42424 35.9822 7.12121 35.2966 7.90909C34.6109 8.63636 34.0499 9.48485 33.6136 10.4545C33.1773 11.3636 32.9591 12.2727 32.9591 13.1818C35.2654 13.4848 37.1666 14.3333 38.6625 15.7273C40.2208 17.0606 41 18.8485 41 21.0909Z" fill="#00C2FF"/>
</svg>