<svg width="77" height="80" viewBox="0 0 77 80" fill="none" xmlns="http://www.w3.org/2000/svg">
    <rect x="0.222168" width="75.5556" height="80" fill="white"/>
    <path fill-rule="evenodd" clip-rule="evenodd" d="M37.1671 59.147C37.2494 59.13 37.3658 59.0691 37.47 58.9266L38.8741 54.4945L40.4659 54.3177L40.7858 54.2777L40.7913 54.2771C41.1009 54.2427 41.4185 54.173 41.7861 54.0913L42.3273 53.971L44.9226 57.9536C44.9723 58.0069 45.0344 58.0422 45.0926 58.0571C45.1549 58.073 45.1941 58.0622 45.2166 58.0499L45.2216 58.0472L49.6194 55.7283C49.6519 55.7096 49.6852 55.6737 49.704 55.6195C49.7231 55.5646 49.7212 55.5082 49.7011 55.4599L47.8951 51.1254L48.2739 50.7465C48.8635 50.1569 49.4354 49.5454 49.9242 48.9062L50.261 48.4658L54.7261 49.8188C54.8329 49.8394 54.9397 49.7817 54.9805 49.6861L54.9812 49.6845L56.8457 45.1226C56.8598 45.0679 56.8575 45.0022 56.8343 44.9396C56.8098 44.8732 56.7715 44.8345 56.7393 44.8161L52.6324 42.6498L52.6832 42.1163C52.7607 41.3025 52.7984 40.4614 52.7605 39.6285L52.7355 39.0789L56.9755 37.2295C57.0478 37.1899 57.0905 37.137 57.1113 37.0912C57.1326 37.0445 57.1332 37.0029 57.1207 36.9652L57.1194 36.9613L55.6007 32.2452C55.6005 32.2443 55.6002 32.2434 55.5999 32.2426C55.5782 32.1796 55.538 32.1345 55.4982 32.1102C55.4629 32.0887 55.4259 32.081 55.3796 32.0917L55.3735 32.0931L50.9013 33.0514L50.6032 32.5794C50.1509 31.8633 49.6184 31.1773 49.0397 30.5215L48.6845 30.1189L50.6897 26.0632L50.6974 26.0491C50.7197 26.0082 50.7239 25.9004 50.6113 25.8279L50.6101 25.8271L46.4101 23.1871C46.3694 23.1613 46.3282 23.1547 46.2851 23.1629C46.2399 23.1716 46.189 23.1981 46.1476 23.248L43.4117 26.8047L42.8771 26.6346C42.0633 26.3756 41.1974 26.223 40.2963 26.1055L39.7501 26.0343L38.7009 21.6554L38.7001 21.6521C38.6856 21.5894 38.6543 21.5521 38.622 21.5303C38.5892 21.5081 38.5425 21.4935 38.4813 21.5029L38.4753 21.5038L33.557 22.1836C33.4852 22.1956 33.4287 22.2312 33.3948 22.2705C33.3629 22.3073 33.355 22.3404 33.3573 22.3708L33.3584 22.3852L33.5425 26.8948L33.0044 27.0998C32.2243 27.397 31.4402 27.8074 30.7314 28.2924L30.2592 28.6154L26.6303 25.9052L26.6199 25.8969C26.5781 25.8635 26.5408 25.8569 26.5125 25.8593C26.4852 25.8617 26.4419 25.8746 26.3944 25.9274L26.3924 25.9295L23.0328 29.6089C22.9811 29.667 22.9696 29.7176 22.9696 29.7522C22.9696 29.7869 22.9812 29.8378 23.0335 29.8962L23.0342 29.897L26.084 33.2606L24.7601 36.6806L20.1804 36.95C20.137 36.9551 20.0848 36.9784 20.0454 37.0179C20.0085 37.0548 19.9997 37.0872 19.9997 37.1122V37.1283L19.7999 42.0835C19.8023 42.1517 19.8262 42.2057 19.8579 42.2435C19.8896 42.2812 19.9346 42.3102 19.9969 42.3208L24.6111 42.9541L24.7379 43.4869C24.9332 44.307 25.1594 45.0909 25.4892 45.8239L25.7225 46.3423L22.3024 49.5801L22.2949 49.5868C22.2099 49.6633 22.209 49.7833 22.2643 49.8524L22.268 49.8572L25.3069 53.7757C25.3484 53.826 25.3995 53.8528 25.4451 53.8615C25.4884 53.8698 25.5296 53.8631 25.5702 53.8373L25.573 53.8355L29.5655 51.3402L30.0056 51.6767C30.6335 52.1569 31.3481 52.5726 32.0922 52.9643L32.5778 53.2198L32.0363 57.8664C32.0328 57.9583 32.0992 58.0628 32.2152 58.0917L37.1671 59.147Z" stroke="black" stroke-width="2"/>
    <path d="M32.2001 40.3C32.2001 43.8346 35.0655 46.7 38.6001 46.7C42.1347 46.7 45.0001 43.8346 45.0001 40.3C45.0001 36.7654 42.1347 33.9 38.6001 33.9C37.0866 33.9 35.6958 34.4254 34.6001 35.3037" stroke="black" stroke-width="2"/>
    <path d="M68.2929 41.2071C68.6834 41.5976 69.3166 41.5976 69.7071 41.2071L76.0711 34.8431C76.4616 34.4526 76.4616 33.8195 76.0711 33.4289C75.6805 33.0384 75.0474 33.0384 74.6569 33.4289L69 39.0858L63.3431 33.4289C62.9526 33.0384 62.3195 33.0384 61.9289 33.4289C61.5384 33.8195 61.5384 34.4526 61.9289 34.8431L68.2929 41.2071ZM8.00001 40.5C8.00001 23.9315 21.4315 10.5 38 10.5L38 8.5C20.3269 8.5 6.00001 22.8269 6.00001 40.5L8.00001 40.5ZM38 10.5C54.5685 10.5 68 23.9315 68 40.5L70 40.5C70 22.8269 55.6731 8.5 38 8.5L38 10.5ZM38 70.5C21.4315 70.5 8.00001 57.0685 8.00001 40.5L6.00001 40.5C6 58.1731 20.3269 72.5 38 72.5L38 70.5ZM56.7495 63.9206C51.6134 68.0379 45.0956 70.5 38 70.5L38 72.5C45.5666 72.5 52.5223 69.8726 58.0005 65.4811L56.7495 63.9206Z" fill="black"/>
    <circle opacity="0.2" cx="37.5" cy="32.5" r="31.5" fill="#00C2FF"/>
</svg>