<svg width="76" height="80" viewBox="0 0 76 80" fill="none" xmlns="http://www.w3.org/2000/svg">
    <rect width="75.5556" height="80" fill="white"/>
    <circle opacity="0.2" cx="38.5" cy="31.5" r="31.5" fill="#00C2FF"/>
    <path d="M19.6954 48.6918H16.6128C16.1574 48.6918 15.7721 48.3416 15.737 47.8862L14.6162 33.1041C14.5812 32.8239 14.7213 32.5086 14.9665 32.3334C15.1066 32.2284 18.2242 29.9165 24.7745 29.9165C31.2898 29.9165 34.4424 32.2284 34.5825 32.3334C34.7576 32.4736 34.8977 32.6838 34.9328 32.929L36.5439 45.8545" stroke="black" stroke-width="2"/>
    <path d="M18.9975 48.1871L20.9348 66.3805C21.008 66.8252 21.3735 67.1958 21.8487 67.1958H28.5382C29.0134 67.1958 29.4156 66.8252 29.4887 66.3805L31.4262 48.1871" stroke="black" stroke-width="2"/>
    <path d="M48.9361 27.7397C46.8967 27.7397 44.9954 26.3828 43.547 24.3027C42.1063 22.2335 41.2726 19.6604 41.2726 17.6636C41.2726 13.4272 44.6997 10 48.9361 10C53.1725 10 56.5997 13.4272 56.5997 17.6636C56.5997 19.6604 55.766 22.2335 54.3253 24.3027C52.8769 26.3828 50.9754 27.7397 48.9361 27.7397Z" stroke="black" stroke-width="2"/>
    <path d="M24.7366 27.7397C22.6972 27.7397 20.7959 26.3828 19.3475 24.3027C17.9068 22.2335 17.0731 19.6604 17.0731 17.6636C17.0731 13.4272 20.5002 10 24.7366 10C28.973 10 32.4002 13.4272 32.4002 17.6636C32.4002 19.6604 31.5665 22.2335 30.1257 24.3027C28.6773 26.3828 26.7759 27.7397 24.7366 27.7397Z" stroke="black" stroke-width="2"/>
    <path d="M48.936 59.0074C38.8102 59.0074 35.8128 56.6312 35.4838 56.3387C35.1548 56.0463 35.0816 55.6076 35.2644 55.2421L40.3455 45.6282" stroke="black" stroke-width="2"/>
    <path d="M52.5851 59.1816C60.486 58.9079 61.8198 57.061 62.0592 56.4796C62.1618 56.2401 62.162 55.9664 62.0252 55.727L57.4418 47.7235L59.0494 47.0395C59.4941 46.8343 59.665 46.3555 59.494 45.9108L53.8164 32.6742C53.7822 32.64 53.7822 32.6059 53.748 32.5717C53.6453 32.3664 52.5167 30.7588 49.3358 30.7588C46.2233 30.7588 44.6158 32.3665 44.5474 32.4349C44.479 32.5033 44.4448 32.5375 44.4106 32.6059L36.5439 45.8766" stroke="black" stroke-width="2"/>
    <path d="M44.8055 59.3731L45.8655 67.1958C45.9387 67.671 46.3042 68.0001 46.7794 68.0001H51.5316C51.9702 68.0001 52.3723 67.6345 52.4089 67.1958L53.2862 59.2633" stroke="black" stroke-width="2"/>
</svg>