<svg width="76" height="80" viewBox="0 0 76 80" fill="none" xmlns="http://www.w3.org/2000/svg">
    <rect x="0.222229" width="75.5556" height="80" fill="white"/>
    <circle opacity="0.2" cx="36.5" cy="31.5" r="31.5" fill="#00C2FF"/>
    <path d="M35.3504 41.1504C33.9401 49.154 38.4179 57.0518 46.0337 59.9429C47.9729 60.6833 50.0179 61.0712 52.0628 61.0712C54.4251 61.0712 56.7874 60.5776 59.0086 59.5198C63.1338 57.6512 66.2718 54.3016 67.8937 50.0707C69.4803 45.8397 69.3745 41.2209 67.5059 37.0957C65.6372 32.9705 62.2877 29.8325 58.0567 28.2107C50.723 25.4253 42.5079 27.9639 38.0654 34.4161" stroke="black" stroke-width="2"/>
    <path d="M42.0848 44.0063L49.3127 51.2342L61.8294 36.7784" stroke="black" stroke-width="2"/>
    <path d="M59.0087 24.2619V20.2072C59.0087 17.7039 56.858 15.6589 54.1784 15.6589C54.1431 15.6589 54.1431 15.6589 54.1079 15.6589C54.0021 15.6589 43.9535 16.2936 34.9979 10.1587C34.7159 9.94711 34.3281 9.94711 34.0108 10.1587C25.0552 16.3288 15.0066 15.6589 14.9008 15.6589C14.8656 15.6589 14.8656 15.6589 14.8303 15.6589C12.186 15.6589 10 17.7039 10 20.2072V40.8332C10 48.9425 14.1957 56.5935 22.1287 63.0458C28.0521 67.8761 33.905 70.2737 34.1518 70.3795C34.2575 70.4147 34.3633 70.4499 34.4691 70.4499C34.5748 70.4499 34.6807 70.4147 34.7159 70.3442C35.0685 70.2384 42.8957 66.9947 49.63 60.5072" stroke="black" stroke-width="2"/>
    <path d="M16.0292 27.9287V40.8332C16.0292 52.9972 28.6515 60.8245 34.0813 63.6451C34.1871 63.7156 34.328 63.7509 34.4691 63.7509C34.6101 63.7509 34.7512 63.7156 34.9274 63.6099C37.1134 62.4816 40.3572 60.5777 43.5305 57.9333" stroke="black" stroke-width="2"/>
    <path d="M51.1814 27.4351V23.1889C47.4441 22.9914 41.0271 22.1684 34.4691 19.0084C30.767 20.8188 26.7123 22.0368 22.4108 22.728" stroke="black" stroke-width="2"/>
    <line x1="34.0332" y1="27.4351" x2="34.0332" y2="18.9731" stroke="black" stroke-width="2"/>
    <line x1="34.0332" y1="63.3983" x2="34.0332" y2="55.6415" stroke="black" stroke-width="2"/>
</svg>