<svg width="76" height="80" viewBox="0 0 76 80" fill="none" xmlns="http://www.w3.org/2000/svg">
    <rect x="0.222168" width="75.5556" height="80" fill="white"/>
    <circle opacity="0.2" cx="37.5" cy="31.5" r="31.5" fill="#00C2FF"/>
    <path d="M33.7537 59.1958L33.7451 59.2044L33.7367 59.2132C31.67 61.3833 28.8391 62.5302 25.8084 62.5302C22.7888 62.5302 19.982 61.3526 17.863 59.2336C13.455 54.8256 13.455 47.713 17.863 43.305C19.9808 41.1872 22.8249 40.0084 25.8084 40.0084C28.7919 40.0084 31.636 41.1872 33.7537 43.305C35.8715 45.4228 37.0503 48.267 37.0503 51.2504C37.0503 54.2701 35.8727 57.0768 33.7537 59.1958Z" stroke="black" stroke-width="2"/>
    <path d="M35.7455 35.1924C28.2643 30.5449 18.6672 31.6784 12.4328 37.9128C8.84337 41.4645 6.87854 46.2252 6.87854 51.2882C6.87854 56.3513 8.84337 61.0743 12.4328 64.6638C16.0979 68.3666 20.9719 70.218 25.8083 70.218C30.6824 70.218 35.5188 68.3666 39.2972 64.5882C45.3426 58.5428 46.5894 49.3235 42.3953 41.9179L52.1815 32.1318L55.9599 35.9102C56.3 36.2881 56.9045 36.2881 57.2823 35.9102L62.761 30.4316L65.0657 32.7364C65.4057 33.1142 66.0103 33.1142 66.3881 32.7364L70.4689 28.6557C70.8467 28.3157 70.8467 27.7111 70.4689 27.3333L63.7056 20.57L65.5948 18.6808C66.5772 17.7362 67.1061 16.4516 67.1061 15.0914C67.1061 13.7312 66.5394 12.4465 65.5948 11.5019C63.5922 9.49936 60.3806 9.49936 58.378 11.5019L39.2215 30.6583" stroke="black" stroke-width="2"/>
    <line x1="51.7765" y1="32.1048" x2="58.1998" y2="25.6815" stroke="black" stroke-width="2"/>
</svg>