<svg width="76" height="80" viewBox="0 0 76 80" fill="none" xmlns="http://www.w3.org/2000/svg">
    <rect x="0.222229" width="75.5556" height="80" fill="white"/>
    <circle opacity="0.2" cx="38.5" cy="32.5" r="31.5" fill="#00C2FF"/>
    <path d="M55.2578 28.8615L54.8641 28.9795L19.5847 38.032L18.6397 38.2682L18.876 39.2128L25.6877 65.8585L25.924 66.8031L26.8689 66.567L72.8188 54.7988L73.7638 54.5626L73.5275 53.618L69.4326 37.6384L69.3145 37.2448L68.9601 37.048L55.5728 29.137L55.2578 28.8615Z" stroke="black" stroke-width="2" stroke-miterlimit="10" stroke-linecap="round" stroke-linejoin="round"/>
    <path d="M55.2578 28.8615L55.8484 31.1442L57.8959 39.0947L58.1321 40.0393L59.0771 39.8031L67.0307 37.7565L69.3144 37.1661L67.267 35.946L57.2659 30.0422L55.2578 28.8615Z" stroke="black" stroke-width="2" stroke-miterlimit="10" stroke-linecap="round" stroke-linejoin="round"/>
    <path d="M36.3188 13.3148L34.0351 13.9052L22.774 16.7784L20.4903 17.3688L22.5378 18.5889L29.6251 22.7609L30.4914 23.2725L31.0032 22.4067L35.0982 15.3615L36.3188 13.3148Z" stroke="black" stroke-width="2" stroke-miterlimit="10" stroke-linecap="round" stroke-linejoin="round"/>
    <path d="M46.3592 31.5772L51.596 22.4854L36.3188 13.3148L20.4509 17.3688L1.27563 49.7609L19.2303 60.6632" stroke="black" stroke-width="2" stroke-miterlimit="10" stroke-linecap="round" stroke-linejoin="round"/>
    <path d="M24.5065 19.7302L7.89056 48.2259L23.4041 57.5145" stroke="black" stroke-width="2" stroke-miterlimit="10" stroke-linecap="round" stroke-linejoin="round"/>
    <path d="M37.5 19.4154L45.0992 24.0204L43.0124 27.602" stroke="black" stroke-width="2" stroke-miterlimit="10" stroke-linecap="round" stroke-linejoin="round"/>
    <path d="M35.4526 46.4547L37.0275 44.2113L39.3113 52.7521" stroke="black" stroke-width="2" stroke-miterlimit="10" stroke-linecap="round" stroke-linejoin="round"/>
    <path d="M43.0518 42.4402C43.7606 42.2434 46.2411 42.2828 47.1861 46.4155C48.1705 50.7449 45.7687 51.2172 45.2962 51.3746C44.7055 51.5714 42.3037 51.2959 41.3194 47.7143C40.335 44.1327 42.3431 42.637 43.0518 42.4402Z" stroke="black" stroke-width="2" stroke-miterlimit="10" stroke-linecap="round" stroke-linejoin="round"/>
    <path d="M52.0685 39.9999C52.7773 39.8031 55.2578 39.8425 56.2028 43.9751C57.1872 48.3046 54.7854 48.7769 54.3129 48.9343C53.7222 49.1311 51.3204 48.8556 50.3361 45.274C49.3517 41.6923 51.3204 40.1967 52.0685 39.9999Z" stroke="black" stroke-width="2" stroke-miterlimit="10" stroke-linecap="round" stroke-linejoin="round"/>
</svg>